# xmcd
#
# Track frame offsets: 
#        150
#        18952
#        33665
#        55485
#        69712
#        82750
#        104877
#        120242
#        141247
#        154795
#        174390
#        206482
#
# Disc length: 2964 seconds
#
# Revision: 3
# Processed by: cddbd v1.5.2PL0 Copyright (c) Steve Scherf et al.
# Submitted via: ExactAudioCopy v0.99pb4
#
DISCID=a20b920c
DTITLE=Various Artist - Kiss My Ass - Classic Kiss Regrooved
DYEAR=1994
DGENRE=Rock
TTITLE0=Lenny Kravits - Deuce
TTITLE1=Garth Brooks - Hard Luck Woman
TTITLE2=Anthrax - She
TTITLE3=Gin Blossoms - Christine Sixteen
TTITLE4=Toad And The Wet Sprocket - Rock And Roll All Nite
TTITLE5=Shandi's Addiction - Calling Dr. Love
TTITLE6=Dinosaur Jr. - Goin' Blind
TTITLE7=Extreme - Strutter
TTITLE8=The Lemmonheads - Plaster Caster
TTITLE9=The Mighty Mighty Bosstones - Detroit Rock City
TTITLE10=Yoshiki - Black Diamond
TTITLE11=Die Aerzte - Unholy (German Version)
EXTD=YEAR: 1994
EXTT0=
EXTT1=
EXTT2=
EXTT3=
EXTT4=
EXTT5=
EXTT6=
EXTT7=
EXTT8=
EXTT9=
EXTT10=
EXTT11=
PLAYORDER=
